#!OML:ASF H:\Pregnant\Project 1\Capture day 1\Session 1\femalepreg.ASF
:FULLY-SPECIFIED
:DEGREES
833
root -5.0737 15.0675 41.7933 -161.231 -3.81861 178.527
lowerback -17.3677 2.83704 -14.3084
upperback -4.08834 5.21949 -8.72549
thorax 4.69615 1.74222 -0.392722
lowerneck -12.6839 5.78014 3.99904
upperneck 41.1282 -1.51235 8.85602
head 17.4395 -0.540294 2.53219
rclavicle 2.82274e-014 9.54166e-015
rhumerus -37.1871 5.22998 -85.664
rradius 43.1727
rwrist -3.23263
rhand -17.4536 -14.271
rfingers 7.12502
rthumb 8.79766 -44.0676
lclavicle 2.82274e-014 9.54166e-015
lhumerus -39.3525 6.42537 58.368
lradius 29.7754
lwrist 47.8089
lhand -36.5215 -2.57857
lfingers 7.12502
lthumb -9.61299 27.1821
rfemur -60.4792 10.7763 20.4052
rtibia 107.877
rfoot -3.44425 -10.0147
rtoes -4.97077
lfemur -32.3464 -14.4728 -22.5588
ltibia 25.3154
lfoot -10.337 0.846161
ltoes -1.23136
834
root -5.05711 15.0663 41.7917 -161.128 -3.76353 178.519
lowerback -17.38 2.85156 -14.2761
upperback -4.09162 5.24216 -8.6827
thorax 4.6972 1.75758 -0.358135
lowerneck -12.6935 5.7607 4.01036
upperneck 41.1065 -1.47126 8.73517
head 17.4231 -0.529371 2.48254
rclavicle 5.04913e-014 3.49861e-014
rhumerus -37.0794 5.16284 -85.5213
rradius 43.7477
rwrist -3.58545
rhand -17.7355 -14.381
rfingers 7.12502
rthumb 8.52555 -44.1889
lclavicle 5.04913e-014 3.49861e-014
lhumerus -39.4931 6.00501 58.8545
lradius 29.7606
lwrist 47.5672
lhand -36.1856 -2.55844
lfingers 7.12502
lthumb -9.28892 27.2169
rfemur -60.4063 10.8452 19.745
rtibia 106.54
rfoot -3.79913 -10.4607
rtoes -5.09048
lfemur -32.5273 -14.4213 -22.4867
ltibia 25.4476
lfoot -10.4166 0.880736
ltoes -1.41055
835
root -5.04025 15.0648 41.7895 -161.023 -3.70793 178.502
lowerback -17.3994 2.86423 -14.2497
upperback -4.09095 5.26573 -8.63755
thorax 4.70551 1.7729 -0.317392
lowerneck -12.7011 5.74017 4.01659
upperneck 41.0855 -1.43222 8.61693
head 17.4068 -0.520032 2.43466
rclavicle 1.35174e-014 1.78111e-013
rhumerus -36.9649 5.09158 -85.386
rradius 44.2961
rwrist -3.91332
rhand -18.0452 -14.4001
rfingers 7.12502
rthumb 8.22667 -44.2199
lclavicle 1.35174e-014 1.78111e-013
lhumerus -39.6259 5.53879 59.386
lradius 29.7736
lwrist 47.2772
lhand -35.7959 -2.58261
lfingers 7.12502
lthumb -8.91285 27.2091
rfemur -60.311 10.9377 19.0514
rtibia 105.087
rfoot -4.24139 -10.9439
rtoes -5.37718
lfemur -32.7051 -14.3684 -22.4242
ltibia 25.5788
lfoot -10.4989 0.912151
ltoes -1.59781
836
root -5.0232 15.063 41.7867 -160.919 -3.653 178.478
lowerback -17.4118 2.87579 -14.2132
upperback -4.09021 5.28432 -8.59775
thorax 4.71211 1.78578 -0.289037
lowerneck -12.723 5.72393 4.01235
upperneck 41.0745 -1.39298 8.51106
head 17.4001 -0.510992 2.3951
rclavicle 3.02153e-014 -9.85972e-014
rhumerus -36.8501 5.02368 -85.2754
rradius 44.8332
rwrist -4.24618
rhand -18.3066 -14.4352
rfingers 7.12502
rthumb 7.97442 -44.2648
lclavicle 3.02153e-014 -9.85972e-014
lhumerus -39.7585 5.02537 59.9455
lradius 29.8216
lwrist 46.9557
lhand -35.3613 -2.6511
lfingers 7.12502
lthumb -8.49345 27.1581
rfemur -60.1925 11.054 18.328
rtibia 103.52
rfoot -4.78181 -11.4711
rtoes -5.82323
lfemur -32.8769 -14.3166 -22.3699
ltibia 25.7069
lfoot -10.584 0.942285
ltoes -1.78422
837
root -5.00605 15.061 41.7833 -160.817 -3.60272 178.447
lowerback -17.4184 2.89413 -14.1656
upperback -4.09233 5.30751 -8.56891
thorax 4.71421 1.80078 -0.277915
lowerneck -12.7389 5.70565 4.01221
upperneck 41.0645 -1.36618 8.4178
head 17.3939 -0.505761 2.35819
rclavicle -8.62725e-014 2.03555e-013
rhumerus -36.7454 4.94217 -85.1909
rradius 45.3415
rwrist -4.54925
rhand -18.5219 -14.4571
rfingers 7.12502
rthumb 7.7666 -44.2945
lclavicle -8.62725e-014 2.03555e-013
lhumerus -39.886 4.44718 60.5296
lradius 29.9047
lwrist 46.6074
lhand -34.8935 -2.75305
lfingers 7.12502
lthumb -8.04198 27.0739
rfemur -60.0455 11.1906 17.5805
rtibia 101.838
rfoot -5.40936 -12.0435
rtoes -6.3796
lfemur -33.043 -14.2688 -22.3223
ltibia 25.8336
lfoot -10.6713 0.968671
ltoes -1.94206
838
root -4.98865 15.0587 41.7793 -160.706 -3.53929 178.414
lowerback -17.4378 2.90232 -14.1163
upperback -4.09212 5.32067 -8.52813
thorax 4.72578 1.81086 -0.25598
lowerneck -12.773 5.69743 3.98489
upperneck 41.063 -1.31673 8.32599
head 17.3951 -0.494655 2.33169
rclavicle -8.18993e-014 -9.54166e-015
rhumerus -36.6225 4.91018 -85.1224
rradius 45.8203
rwrist -4.82722
rhand -18.6644 -14.5269
rfingers 7.12502
rthumb 7.62909 -44.3693
lclavicle -8.18993e-014 -9.54166e-015
lhumerus -40.0208 3.89306 61.1306
lradius 30.0152
lwrist 46.212
lhand -34.4641 -2.87088
lfingers 7.12502
lthumb -7.62755 26.9716
rfemur -59.8905 11.3687 16.8081
rtibia 100.045
rfoot -6.09553 -12.6593
rtoes -7.02392
lfemur -33.2135 -14.2101 -22.2782
ltibia 25.9575
lfoot -10.7608 0.99524
ltoes -2.06358
839
root -4.97094 15.0562 41.7747 -160.586 -3.46748 178.376
lowerback -17.4638 2.91993 -14.0576
upperback -4.09616 5.34374 -8.50045
thorax 4.73752 1.82496 -0.251217
lowerneck -12.8055 5.68673 3.9683
upperneck 41.0594 -1.27735 8.23965
head 17.3958 -0.485564 2.30386
rclavicle 8.34896e-015 1.27222e-014
rhumerus -36.5113 4.86947 -85.0831
rradius 46.2782
rwrist -5.07211
rhand -18.7101 -14.6842
rfingers 7.12502
rthumb 7.58493 -44.5282
lclavicle 8.34896e-015 1.27222e-014
lhumerus -40.1432 3.29814 61.7398
lradius 30.156
lwrist 45.7927
lhand -34.0899 -2.98985
lfingers 7.12502
lthumb -7.2663 26.8654
rfemur -59.7241 11.5831 16.0099
rtibia 98.1431
rfoot -6.82349 -13.3166
rtoes -7.71641
lfemur -33.3872 -14.1443 -22.2406
ltibia 26.0785
lfoot -10.8537 1.02008
ltoes -2.16431
840
root -4.95298 15.0538 41.7695 -160.464 -3.40227 178.328
lowerback -17.4685 2.95142 -13.9678
upperback -4.11602 5.36945 -8.50409
thorax 4.72612 1.8403 -0.297628
lowerneck -12.8219 5.67694 3.97857
upperneck 41.0538 -1.25622 8.17076
head 17.394 -0.479444 2.27526
rclavicle 7.95139e-016 5.725e-014
rhumerus -36.4345 4.81662 -85.1078
rradius 46.6932
rwrist -5.22405
rhand -18.8071 -14.7874
rfingers 7.12502
rthumb 7.49132 -44.6348
lclavicle 7.95139e-016 5.725e-014
lhumerus -40.2665 2.64145 62.3273
lradius 30.3288
lwrist 45.3577
lhand -33.7509 -3.10526
lfingers 7.12502
lthumb -6.9391 26.761
rfemur -59.5294 11.8177 15.1947
rtibia 96.1337
rfoot -7.58727 -14.0189
rtoes -8.42228
lfemur -33.5567 -14.0832 -22.2101
ltibia 26.1931
lfoot -10.9512 1.04071
ltoes -2.25181
841
root -4.93437 15.0513 41.7637 -160.331 -3.32297 178.278
lowerback -17.4954 2.9826 -13.8962
upperback -4.13626 5.40236 -8.49625
thorax 4.72274 1.85865 -0.319676
lowerneck -12.8212 5.66197 3.98987
upperneck 41.0388 -1.23282 8.08699
head 17.3817 -0.473999 2.23936
rclavicle -5.12864e-014 1.43125e-013
rhumerus -36.361 4.7848 -85.1318
rradius 47.0716
rwrist -5.33898
rhand -18.8848 -14.8329
rfingers 7.12502
rthumb 7.41635 -44.6829
lclavicle -5.12864e-014 1.43125e-013
lhumerus -40.3812 2.00736 62.9294
lradius 30.5177
lwrist 44.8818
lhand -33.4206 -3.23605
lfingers 7.12502
lthumb -6.6203 26.6405
rfemur -59.3227 12.0983 14.3631
rtibia 94.02
rfoot -8.37113 -14.7765
rtoes -9.11132
lfemur -33.7261 -14.0099 -22.1828
ltibia 26.2943
lfoot -11.0461 1.06098
ltoes -2.34034
842
root -4.9154 15.0491 41.7572 -160.2 -3.25495 178.22
lowerback -17.503 3.04685 -13.7892
upperback -4.18907 5.45776 -8.53414
thorax 4.67902 1.88784 -0.407335
lowerneck -12.7659 5.63768 4.04396
upperneck 41.0487 -1.26921 8.03123
head 17.3754 -0.489766 2.19659
rclavicle 2.90226e-014 -1.33583e-013
rhumerus -36.387 4.68133 -85.2179
rradius 47.4271
rwrist -5.36221
rhand -19.006 -14.7636
rfingers 7.12502
rthumb 7.29932 -44.6176
lclavicle 2.90226e-014 -1.33583e-013
lhumerus -40.5142 1.25598 63.5023
lradius 30.7395
lwrist 44.4068
lhand -33.0457 -3.38601
lfingers 7.12502
lthumb -6.25829 26.5015
rfemur -59.0798 12.398 13.5244
rtibia 91.8039
rfoot -9.17057 -15.5784
rtoes -9.68118
lfemur -33.8823 -13.9449 -22.1603
ltibia 26.3796
lfoot -11.1318 1.07521
ltoes -2.47644
843
root -4.8962 15.0473 41.7499 -160.077 -3.20986 178.154
lowerback -17.5248 3.09417 -13.7009
upperback -4.21901 5.50458 -8.549
thorax 4.6652 1.91257 -0.46069
lowerneck -12.7191 5.61104 4.08208
upperneck 41.0456 -1.28904 7.96091
head 17.3617 -0.500619 2.15316
rclavicle -4.92986e-014 -1.08139e-013
rhumerus -36.3945 4.62832 -85.2995
rradius 47.7378
rwrist -5.31685
rhand -19.1437 -14.6298
rfingers 7.12502
rthumb 7.16648 -44.4885
lclavicle -4.92986e-014 -1.08139e-013
lhumerus -40.6259 0.569126 64.0869
lradius 30.9731
lwrist 43.8994
lhand -32.5584 -3.61432
lfingers 7.12502
lthumb -5.78785 26.2866
rfemur -58.7825 12.7037 12.6909
rtibia 89.4873
rfoot -9.96262 -16.4069
rtoes -10.0976
lfemur -34.0194 -13.8946 -22.142
ltibia 26.4527
lfoot -11.2187 1.07822
ltoes -2.58085
